<svg width="24" height="24" viewBox="0 0 24 24" fill="none" xmlns="http://www.w3.org/2000/svg">
<path d="M1.7998 9.65216C2.4998 8.95216 4.5598 7.55216 7.1998 7.55216C10.4998 7.55216 13.4998 9.65216 15.2998 7.55216C16.9232 5.65817 15.5998 3.95218 14.3998 3.65216C13.4795 3.42206 12.2998 3.95218 12.2998 5.15217C12.2998 6.35216 13.4998 6.35218 13.7998 6.05218M2.0998 12.9522C2.6998 12.4522 4.5598 11.4522 7.1998 11.4522C10.4998 11.4522 12.5998 12.9522 14.3998 13.5522C16.7998 14.3522 20.0998 14.4522 21.2998 11.7522C22.4998 9.05218 20.784 7.53534 19.1998 7.85218C17.6998 8.15218 17.6998 10.5522 19.4998 10.2522M1.7998 16.8522C2.6998 15.9522 4.01585 14.9627 5.6998 14.7522C7.7998 14.4897 9.8701 15.0225 11.3998 16.5522C12.2998 17.4522 12.7992 19.4026 11.3998 20.4522C10.1998 21.3522 8.6998 20.1522 8.6998 19.2522C8.6998 18.5322 9.2998 18.0522 9.89981 18.0522" stroke="#A1A3F6" stroke-width="1.5" stroke-linecap="round" stroke-linejoin="round"/>
</svg>
