<svg width="25" height="24" viewBox="0 0 25 24" fill="none" xmlns="http://www.w3.org/2000/svg">
<path d="M4.00391 19L8.30474 11.7217C8.45713 11.4636 8.66387 11.3186 8.87945 11.3186C9.09503 11.3186 9.30177 11.4636 9.45416 11.7217L11.5547 15.2765C11.7071 15.5346 11.9139 15.6795 12.1294 15.6795C12.345 15.6795 12.5518 15.5346 12.7042 15.2765L18.0039 6.5" stroke="#B0B2C4" stroke-width="1.5" stroke-linecap="round" stroke-linejoin="round"/>
<path d="M14.0039 7L18.5039 5.5L19.5039 10" stroke="#B0B2C4" stroke-width="1.5" stroke-linecap="round" stroke-linejoin="round"/>
<path fill-rule="evenodd" clip-rule="evenodd" d="M0.75 2.25C0.75 1.42157 1.42157 0.75 2.25 0.75H21.75C22.5784 0.75 23.25 1.42157 23.25 2.25V21.75C23.25 22.5784 22.5784 23.25 21.75 23.25H2.25C1.42157 23.25 0.75 22.5784 0.75 21.75V2.25Z" stroke="#B0B2C4" stroke-width="1.5" stroke-linecap="round" stroke-linejoin="round"/>
</svg>
