<svg width="32" height="32" viewBox="0 0 32 32" fill="none" xmlns="http://www.w3.org/2000/svg">
<g clip-path="url(#clip0_0_327)">
<path d="M19.7762 1.02401L26.4962 7.74402C27.0082 8.25602 27.0082 9.02401 26.4962 9.53602L18.3682 17.664C17.8562 18.176 17.0882 18.176 16.5762 17.664L9.85617 10.944C9.34417 10.432 9.34417 9.66402 9.85617 9.15202L17.9842 1.02401C18.4962 0.512015 19.2642 0.512015 19.7762 1.02401Z" stroke="#898D9E" stroke-width="1.5" stroke-miterlimit="10"/>
<path d="M10.1758 11.328L8.63977 12.8C8.19177 13.248 8.19177 13.888 8.63977 14.336L9.72777 15.424L7.74377 18.688L8.83177 19.776L12.0958 17.792L13.1838 18.88C13.6318 19.328 14.2718 19.328 14.7198 18.88L16.2558 17.344M10.8798 28.8C10.8798 30.208 9.72777 31.36 8.31977 31.36C6.91177 31.36 5.75977 30.208 5.75977 28.8C5.75977 27.392 8.31977 23.68 8.31977 23.68C8.31977 23.68 10.8798 27.392 10.8798 28.8Z" stroke="#898D9E" stroke-width="1.5" stroke-miterlimit="10"/>
</g>
<defs>
<clipPath id="clip0_0_327">
<rect width="32" height="32" fill="white"/>
</clipPath>
</defs>
</svg>
