<svg width="32" height="32" viewBox="0 0 32 32" fill="none" xmlns="http://www.w3.org/2000/svg">
<path d="M17.057 29.9999C21.824 29.9999 26.227 27.6159 28.837 23.6219C29.04 23.3109 29.054 22.9139 28.874 22.5889C28.694 22.2649 28.378 22.0529 27.978 22.0749L27.74 22.0879C21.092 22.0879 15.683 16.7019 15.683 10.0819C15.683 7.75993 16.358 5.50094 17.634 3.54694C17.837 3.23694 17.851 2.83994 17.672 2.51594C17.492 2.19094 17.159 1.99294 16.777 1.99994C9.18 2.14994 3 8.42694 3 15.9939C3 23.7169 9.306 29.9999 17.057 29.9999ZM14.999 4.17394C14.134 6.01894 13.683 8.02894 13.683 10.0809C13.683 17.2319 19.09 23.1489 26.045 23.9859C23.772 26.5269 20.526 27.9999 17.057 27.9999C10.409 27.9999 5 22.6139 5 15.9939C5 10.1239 9.343 5.15894 14.999 4.17394Z" fill="#898D9E"/>
</svg>
