<svg width="24" height="24" viewBox="0 0 24 24" fill="none" xmlns="http://www.w3.org/2000/svg">
<path fill-rule="evenodd" clip-rule="evenodd" d="M12 3.08477C11.4455 3.08477 10.9171 2.84958 10.546 2.43763L9.606 1.39963C9.05017 0.788574 8.17076 0.591836 7.40754 0.907791C6.64431 1.22375 6.16129 1.9845 6.2 2.80963L6.267 4.21063C6.2967 4.76519 6.0895 5.30628 5.69699 5.69917C5.30448 6.09206 4.76359 6.29979 4.209 6.27063L2.809 6.19963C1.98351 6.16017 1.22214 6.64326 0.906222 7.40692C0.590308 8.17059 0.787888 9.05038 1.4 9.60563L2.441 10.5506C2.85242 10.9222 3.08722 11.4507 3.08722 12.0051C3.08722 12.5595 2.85242 13.088 2.441 13.4596L1.4 14.3996C0.785828 14.9555 0.587955 15.8378 0.905883 16.6027C1.22381 17.3677 1.98873 17.8498 2.816 17.8066L4.216 17.7356C4.76952 17.7072 5.30918 17.9146 5.7011 18.3065C6.09302 18.6984 6.30047 19.2381 6.272 19.7916L6.2 21.1916C6.1622 22.0164 6.64554 22.7763 7.40854 23.0917C8.17154 23.4071 9.0504 23.2103 9.606 22.5996L10.551 21.5586C10.9224 21.1473 11.4507 20.9125 12.005 20.9125C12.5593 20.9125 13.0876 21.1473 13.459 21.5586L14.4 22.5996C14.9564 23.2074 15.8337 23.4021 16.595 23.0865C17.3563 22.771 17.8387 22.0129 17.802 21.1896L17.731 19.7896C17.7025 19.2361 17.91 18.6964 18.3019 18.3045C18.6938 17.9126 19.2335 17.7052 19.787 17.7336L21.187 17.8046C22.0146 17.8468 22.7792 17.3636 23.0964 16.5981C23.4136 15.8325 23.2149 14.9502 22.6 14.3946L21.558 13.4546C21.1466 13.083 20.9118 12.5545 20.9118 12.0001C20.9118 11.4457 21.1466 10.9172 21.558 10.5456L22.6 9.60563C23.2143 9.05041 23.4132 8.16891 23.0968 7.40369C22.7804 6.63848 22.017 6.15485 21.19 6.19563L19.79 6.26663C19.2377 6.29359 18.6997 6.08575 18.309 5.69446C17.9183 5.30317 17.7112 4.7649 17.739 4.21263L17.81 2.81263C17.8521 1.98503 17.369 1.22043 16.6035 0.903209C15.8379 0.585987 14.9556 0.784771 14.4 1.39963L13.454 2.43763C13.0829 2.84958 12.5545 3.08477 12 3.08477ZM16.5 12.0006C16.5 14.4859 14.4853 16.5006 12 16.5006C9.51472 16.5006 7.5 14.4859 7.5 12.0006C7.5 9.51536 9.51472 7.50064 12 7.50064C14.4853 7.50064 16.5 9.51536 16.5 12.0006Z" fill="#585CE5"/>
<path d="M10.546 2.43763L11.1032 1.93564L11.1019 1.93419L10.546 2.43763ZM9.606 1.39963L10.1619 0.89619L10.1608 0.89496L9.606 1.39963ZM6.2 2.80963L5.45082 2.84478L5.45086 2.84546L6.2 2.80963ZM6.267 4.21063L5.51784 4.24646L5.51807 4.25073L6.267 4.21063ZM4.209 6.27063L4.24838 5.52166L4.24699 5.52159L4.209 6.27063ZM2.809 6.19963L2.84699 5.45059L2.84481 5.45048L2.809 6.19963ZM0.906222 7.40692L1.59926 7.69362L0.906222 7.40692ZM1.4 9.60563L1.90411 9.05031L1.9039 9.05013L1.4 9.60563ZM2.441 10.5506L1.93689 11.1059L1.93828 11.1072L2.441 10.5506ZM2.441 13.4596L2.94364 14.0163L2.94372 14.0162L2.441 13.4596ZM1.4 14.3996L0.897361 13.843L0.896703 13.8436L1.4 14.3996ZM2.816 17.8066L2.77801 17.0576L2.77691 17.0576L2.816 17.8066ZM4.216 17.7356L4.25399 18.4847L4.25453 18.4846L4.216 17.7356ZM6.272 19.7916L5.52299 19.7531L5.52299 19.7531L6.272 19.7916ZM6.2 21.1916L5.45098 21.1531L5.45079 21.1573L6.2 21.1916ZM9.606 22.5996L10.1608 23.1043L10.1613 23.1037L9.606 22.5996ZM10.551 21.5586L11.1063 22.0627L11.1077 22.0612L10.551 21.5586ZM13.459 21.5586L12.9023 22.0612L12.9026 22.0616L13.459 21.5586ZM14.4 22.5996L13.8436 23.1026L13.8468 23.1061L14.4 22.5996ZM17.802 21.1896L18.5513 21.1562L18.551 21.1516L17.802 21.1896ZM17.731 19.7896L18.48 19.7516L18.48 19.7511L17.731 19.7896ZM19.787 17.7336L19.7485 18.4826L19.749 18.4827L19.787 17.7336ZM21.187 17.8046L21.2251 17.0556L21.225 17.0556L21.187 17.8046ZM22.6 14.3946L23.1028 13.8381L23.1024 13.8377L22.6 14.3946ZM21.558 13.4546L21.0553 14.0112L21.0556 14.0115L21.558 13.4546ZM21.558 10.5456L21.0556 9.98874L21.0553 9.98906L21.558 10.5456ZM22.6 9.60563L23.1024 10.1625L23.1029 10.1621L22.6 9.60563ZM21.19 6.19563L21.1531 5.44654L21.152 5.44659L21.19 6.19563ZM19.79 6.26663L19.8266 7.01574L19.828 7.01567L19.79 6.26663ZM17.739 4.21263L16.99 4.17464L16.9899 4.17497L17.739 4.21263ZM17.81 2.81263L17.061 2.77448L17.061 2.77464L17.81 2.81263ZM16.6035 0.903209L16.8906 0.210337V0.210337L16.6035 0.903209ZM14.4 1.39963L14.9543 1.90483L14.9565 1.90245L14.4 1.39963ZM13.454 2.43763L12.8997 1.93243L12.8968 1.93564L13.454 2.43763ZM9.98877 2.93962C10.5021 3.50944 11.2331 3.83477 12 3.83477V2.33477C11.658 2.33477 11.3321 2.18971 11.1032 1.93564L9.98877 2.93962ZM9.05008 1.90307L9.99008 2.94107L11.1019 1.93419L10.1619 0.896191L9.05008 1.90307ZM7.69441 1.60076C8.16544 1.40577 8.70816 1.52718 9.05119 1.9043L10.1608 0.89496C9.39217 0.0499645 8.17609 -0.222096 7.12067 0.214823L7.69441 1.60076ZM6.94918 2.77448C6.92529 2.26525 7.22339 1.79575 7.69441 1.60076L7.12067 0.214823C6.06524 0.651743 5.39729 1.70375 5.45082 2.84478L6.94918 2.77448ZM7.01614 4.1748L6.94914 2.7738L5.45086 2.84546L5.51786 4.24646L7.01614 4.1748ZM6.22758 6.22924C6.77043 5.68586 7.057 4.93751 7.01593 4.17052L5.51807 4.25073C5.5364 4.59288 5.40856 4.9267 5.1664 5.1691L6.22758 6.22924ZM4.16962 7.01959C4.93665 7.05992 5.68472 6.77263 6.22758 6.22924L5.1664 5.1691C4.92424 5.41149 4.59054 5.53965 4.24838 5.52166L4.16962 7.01959ZM2.77101 6.94867L4.17101 7.01967L4.24699 5.52159L2.84699 5.45059L2.77101 6.94867ZM1.59926 7.69362C1.79417 7.22247 2.2639 6.92443 2.77319 6.94877L2.84481 5.45048C1.70312 5.39591 0.650106 6.06404 0.213182 7.12022L1.59926 7.69362ZM1.9039 9.05013C1.52626 8.70756 1.40436 8.16477 1.59926 7.69362L0.213182 7.12022C-0.223741 8.17641 0.0495212 9.39319 0.896099 10.1611L1.9039 9.05013ZM2.94511 9.99531L1.90411 9.05031L0.895894 10.1609L1.93689 11.1059L2.94511 9.99531ZM3.83722 12.0051C3.83722 11.2386 3.51258 10.5079 2.94372 9.99406L1.93828 11.1072C2.19227 11.3366 2.33722 11.6629 2.33722 12.0051H3.83722ZM2.94372 14.0162C3.51258 13.5024 3.83722 12.7717 3.83722 12.0051H2.33722C2.33722 12.3474 2.19227 12.6736 1.93828 12.9031L2.94372 14.0162ZM1.90264 14.9563L2.94364 14.0163L1.93836 12.903L0.897361 13.843L1.90264 14.9563ZM1.59845 16.3149C1.4023 15.843 1.52438 15.2986 1.9033 14.9557L0.896703 13.8436C0.047276 14.6124 -0.226391 15.8326 0.213317 16.8906L1.59845 16.3149ZM2.77691 17.0576C2.26652 17.0843 1.7946 16.7869 1.59845 16.3149L0.213317 16.8906C0.653025 17.9486 1.71094 18.6153 2.85509 18.5556L2.77691 17.0576ZM4.17801 16.9866L2.77801 17.0576L2.85399 18.5557L4.25399 18.4847L4.17801 16.9866ZM6.23143 17.7762C5.68939 17.2342 4.94302 16.9472 4.17747 16.9866L4.25453 18.4846C4.59603 18.4671 4.92897 18.5951 5.17077 18.8369L6.23143 17.7762ZM7.02101 19.8302C7.06039 19.0646 6.77347 18.3182 6.23143 17.7762L5.17077 18.8369C5.41257 19.0787 5.54056 19.4116 5.52299 19.7531L7.02101 19.8302ZM6.94901 21.2302L7.02101 19.8301L5.52299 19.7531L5.45099 21.1531L6.94901 21.2302ZM7.69507 22.3986C7.22418 22.204 6.92588 21.735 6.94921 21.226L5.45079 21.1573C5.39851 22.2978 6.06691 23.3487 7.12202 23.7848L7.69507 22.3986ZM9.05123 22.0949C8.70834 22.4718 8.16596 22.5933 7.69507 22.3986L7.12202 23.7848C8.17713 24.221 9.39246 23.9489 10.1608 23.1043L9.05123 22.0949ZM9.99568 21.0545L9.05068 22.0955L10.1613 23.1037L11.1063 22.0627L9.99568 21.0545ZM12.005 20.1625C11.2386 20.1625 10.508 20.4871 9.99434 21.056L11.1077 22.0612C11.3369 21.8074 11.6629 21.6625 12.005 21.6625V20.1625ZM14.0157 21.056C13.502 20.4871 12.7714 20.1625 12.005 20.1625V21.6625C12.3471 21.6625 12.6731 21.8074 12.9023 22.0612L14.0157 21.056ZM14.9564 22.0967L14.0154 21.0557L12.9026 22.0616L13.8436 23.1026L14.9564 22.0967ZM16.3078 22.3937C15.838 22.5884 15.2966 22.4683 14.9532 22.0932L13.8468 23.1061C14.6163 23.9466 15.8295 24.2157 16.8822 23.7794L16.3078 22.3937ZM17.0527 21.223C17.0754 21.7311 16.7777 22.199 16.3078 22.3937L16.8822 23.7794C17.9349 23.3431 18.602 22.2947 18.5513 21.1562L17.0527 21.223ZM16.982 19.8276L17.053 21.2276L18.551 21.1516L18.48 19.7516L16.982 19.8276ZM17.7716 17.7742C17.2295 18.3162 16.9426 19.0626 16.982 19.8282L18.48 19.7511C18.4624 19.4096 18.5904 19.0767 18.8322 18.8349L17.7716 17.7742ZM19.8255 16.9846C19.06 16.9452 18.3136 17.2322 17.7716 17.7742L18.8322 18.8349C19.074 18.5931 19.407 18.4651 19.7485 18.4826L19.8255 16.9846ZM21.225 17.0556L19.825 16.9846L19.749 18.4827L21.149 18.5537L21.225 17.0556ZM22.4035 16.311C22.2078 16.7834 21.7359 17.0816 21.2251 17.0556L21.1489 18.5537C22.2933 18.6119 23.3506 17.9438 23.7893 16.8852L22.4035 16.311ZM22.0972 14.9511C22.4766 15.294 22.5993 15.8385 22.4035 16.311L23.7893 16.8852C24.228 15.8265 23.9531 14.6064 23.1028 13.8381L22.0972 14.9511ZM21.0556 14.0115L22.0976 14.9515L23.1024 13.8377L22.0604 12.8977L21.0556 14.0115ZM20.1618 12.0001C20.1618 12.7667 20.4864 13.4974 21.0553 14.0112L22.0607 12.8981C21.8067 12.6686 21.6618 12.3424 21.6618 12.0001H20.1618ZM21.0553 9.98906C20.4864 10.5029 20.1618 11.2336 20.1618 12.0001H21.6618C21.6618 11.6579 21.8067 11.3316 22.0607 11.1022L21.0553 9.98906ZM22.0976 9.04874L21.0556 9.98874L22.0604 11.1025L23.1024 10.1625L22.0976 9.04874ZM22.4037 7.69028C22.599 8.16253 22.4762 8.70655 22.0971 9.04921L23.1029 10.1621C23.9524 9.39427 24.2274 8.17528 23.7899 7.11711L22.4037 7.69028ZM21.2269 6.94472C21.7373 6.91956 22.2085 7.21803 22.4037 7.69028L23.7899 7.11711C23.3524 6.05894 22.2967 5.39015 21.1531 5.44654L21.2269 6.94472ZM19.828 7.01567L21.228 6.94467L21.152 5.44659L19.752 5.51759L19.828 7.01567ZM17.7783 6.2244C18.3187 6.76558 19.0627 7.05303 19.8266 7.01574L19.7534 5.51752C19.4127 5.53416 19.0808 5.40593 18.8397 5.16452L17.7783 6.2244ZM16.9899 4.17497C16.9515 4.93878 17.2379 5.68323 17.7783 6.2244L18.8397 5.16452C18.5987 4.92311 18.4709 4.59102 18.4881 4.25029L16.9899 4.17497ZM17.061 2.77464L16.99 4.17464L18.488 4.25062L18.559 2.85062L17.061 2.77464ZM16.3163 1.59608C16.7888 1.79185 17.087 2.26373 17.061 2.77448L18.559 2.85078C18.6173 1.70633 17.9492 0.649007 16.8906 0.210337L16.3163 1.59608ZM14.9565 1.90245C15.2993 1.52299 15.8439 1.40031 16.3163 1.59608L16.8906 0.210337C15.8319 -0.228332 14.6118 0.0465556 13.8435 0.896811L14.9565 1.90245ZM14.0083 2.94282L14.9543 1.90482L13.8457 0.894434L12.8997 1.93243L14.0083 2.94282ZM12 3.83477C12.7669 3.83477 13.4979 3.50944 14.0112 2.93962L12.8968 1.93564C12.6679 2.18971 12.342 2.33477 12 2.33477V3.83477ZM12 17.2506C14.8995 17.2506 17.25 14.9001 17.25 12.0006H15.75C15.75 14.0717 14.0711 15.7506 12 15.7506V17.2506ZM6.75 12.0006C6.75 14.9001 9.10051 17.2506 12 17.2506V15.7506C9.92893 15.7506 8.25 14.0717 8.25 12.0006H6.75ZM12 6.75064C9.10051 6.75064 6.75 9.10115 6.75 12.0006H8.25C8.25 9.92957 9.92893 8.25064 12 8.25064V6.75064ZM17.25 12.0006C17.25 9.10115 14.8995 6.75064 12 6.75064V8.25064C14.0711 8.25064 15.75 9.92957 15.75 12.0006H17.25Z" fill="#585CE5"/>
</svg>
