<svg width="32" height="32" viewBox="0 0 32 32" fill="none" xmlns="http://www.w3.org/2000/svg">
<path fill-rule="evenodd" clip-rule="evenodd" d="M30.7679 14.3385C31.0534 14.987 31.0764 15.7257 30.8318 16.3918C30.5871 17.0578 30.0949 17.5965 29.4636 17.8891L14.621 24.8188C14.1489 25.0402 13.6106 25.0595 13.1246 24.8723C12.6387 24.6852 12.2451 24.307 12.0308 23.8212L7.17627 12.8259C6.96088 12.3406 6.94213 11.7871 7.12417 11.2875C7.30621 10.7879 7.67409 10.3833 8.14665 10.1629L22.9997 3.23864C23.6305 2.94505 24.3491 2.92142 24.9969 3.17294C25.6448 3.42446 26.1687 3.93049 26.4534 4.57952L30.7679 14.3385Z" stroke="#898D9E" stroke-width="1.5" stroke-linecap="round" stroke-linejoin="round"/>
<path d="M2.49756 18.3176L5.13474 16.6207" stroke="#898D9E" stroke-width="1.5" stroke-linecap="round" stroke-linejoin="round"/>
<path d="M6.67676 26.6763L8.2691 24.9795" stroke="#898D9E" stroke-width="1.5" stroke-linecap="round" stroke-linejoin="round"/>
<path d="M2 23.9347L4.2297 21.9976" stroke="#898D9E" stroke-width="1.5" stroke-linecap="round" stroke-linejoin="round"/>
<path d="M10.061 12.186L15.4143 24.0816" stroke="#898D9E" stroke-width="1.5" stroke-linecap="round" stroke-linejoin="round"/>
<path d="M23.5195 5.55542L28.8728 17.451" stroke="#898D9E" stroke-width="1.5" stroke-linecap="round" stroke-linejoin="round"/>
</svg>
