<svg width="18" height="15" viewBox="0 0 18 15" fill="none" xmlns="http://www.w3.org/2000/svg">
<path d="M13.1016 1.53948C13.3134 1.36986 13.5649 1.23531 13.8416 1.14351C14.1184 1.05172 14.415 1.00447 14.7146 1.00447C15.0141 1.00447 15.3107 1.05172 15.5875 1.14351C15.8642 1.23531 16.1157 1.36986 16.3275 1.53948C16.5393 1.7091 16.7074 1.91046 16.822 2.13208C16.9366 2.3537 16.9956 2.59123 16.9956 2.83111C16.9956 3.07098 16.9366 3.30851 16.822 3.53013C16.7074 3.75175 16.5393 3.95311 16.3275 4.12273L5.44009 12.8412L1.00447 13.8099L2.21418 10.258L13.1016 1.53948Z" stroke="white" stroke-width="2" stroke-linecap="round" stroke-linejoin="round"/>
</svg>
