<svg width="32" height="32" viewBox="0 0 32 32" fill="none" xmlns="http://www.w3.org/2000/svg">
<path d="M31 17H27C26.447 17 26 17.447 26 18C26 18.553 26.447 19 27 19H31C31.553 19 32 18.553 32 18C32 17.447 31.553 17 31 17Z" fill="#415371"/>
<path d="M15 2V6C15 6.553 15.447 7 16 7C16.553 7 17 6.553 17 6V2C17 1.447 16.553 1 16 1C15.447 1 15 1.447 15 2Z" fill="#415371"/>
<path d="M0 17C0 17.553 0.447 18 1 18H5C5.553 18 6 17.553 6 17C6 16.447 5.553 16 5 16H1C0.447 16 0 16.447 0 17Z" fill="#415371"/>
<path d="M4.6868 5.68705C4.2958 6.07805 4.2958 6.71005 4.6868 7.10105L7.5148 9.92905C7.7098 10.124 7.96581 10.222 8.22181 10.222C8.47781 10.222 8.7338 10.124 8.9288 9.92905C9.3198 9.53805 9.3198 8.90605 8.9288 8.51505L6.1008 5.68705C5.7098 5.29605 5.0768 5.29605 4.6868 5.68705Z" fill="#415371"/>
<path d="M23.7781 10.222C24.0341 10.222 24.2901 10.124 24.4851 9.92905L27.3131 7.10105C27.7041 6.71005 27.7041 6.07805 27.3131 5.68705C26.9221 5.29605 26.2901 5.29605 25.8991 5.68705L23.0711 8.51505C22.6801 8.90605 22.6801 9.53805 23.0711 9.92905C23.2671 10.124 23.5221 10.222 23.7781 10.222Z" fill="#415371"/>
<path d="M31 20H24.356C24.766 19.12 25 18.184 25 17C25 12.037 20.963 8 16 8C11.037 8 7 12.037 7 17C7 18.184 7.234 19.12 7.644 20H1C0.447 20 0 20.447 0 21C0 21.553 0.447 22 1 22H9.387H22.614H31C31.553 22 32 21.553 32 21C32 20.447 31.553 20 31 20ZM9.925 20C9.312 19.03 9 18.223 9 17C9 13.141 12.141 10 16 10C19.859 10 23 13.141 23 17C23 18.223 22.688 19.03 22.075 20H9.925Z" fill="#415371"/>
<path d="M16.7082 23.294C16.5272 23.113 16.2772 23 16.0002 23C15.7232 23 15.4732 23.113 15.2922 23.294L12.2942 26.293C11.9032 26.684 11.9032 27.316 12.2942 27.707C12.6852 28.098 13.3172 28.098 13.7082 27.707L15.0002 26.414V30C15.0002 30.553 15.4472 31 16.0002 31C16.5532 31 17.0002 30.553 17.0002 30V26.414L18.2922 27.707C18.4872 27.902 18.7432 28 18.9992 28C19.2552 28 19.5112 27.902 19.7062 27.707C20.0972 27.316 20.0972 26.684 19.7062 26.293L16.7082 23.294Z" fill="#415371"/>
</svg>
