<svg width="32" height="32" viewBox="0 0 32 32" fill="none" xmlns="http://www.w3.org/2000/svg">
<g clip-path="url(#clip0_0_251)">
<path d="M31 15H27C26.448 15 26 15.448 26 16C26 16.552 26.448 17 27 17H31C31.552 17 32 16.552 32 16C32 15.448 31.552 15 31 15Z" fill="#898D9E"/>
<path d="M16 25C20.962 25 25 20.962 25 16C25 11.038 20.962 7 16 7C11.038 7 7 11.038 7 16C7 20.962 11.038 25 16 25ZM16 9C19.86 9 23 12.14 23 16C23 19.86 19.86 23 16 23C12.14 23 9 19.86 9 16C9 12.14 12.14 9 16 9Z" fill="#898D9E"/>
<path d="M16 6C16.552 6 17 5.552 17 5V1C17 0.448 16.552 0 16 0C15.448 0 15 0.448 15 1V5C15 5.552 15.448 6 16 6Z" fill="#898D9E"/>
<path d="M17 31V27C17 26.448 16.552 26 16 26C15.448 26 15 26.448 15 27V31C15 31.552 15.448 32 16 32C16.552 32 17 31.552 17 31Z" fill="#898D9E"/>
<path d="M1 17H5C5.552 17 6 16.552 6 16C6 15.448 5.552 15 5 15H1C0.448 15 0 15.448 0 16C0 16.552 0.448 17 1 17Z" fill="#898D9E"/>
<path d="M7.5148 8.92905C7.7098 9.12405 7.96581 9.22205 8.22181 9.22205C8.47781 9.22205 8.7338 9.12405 8.9288 8.92905C9.3198 8.53805 9.3198 7.90605 8.9288 7.51505L6.1008 4.68705C5.7098 4.29605 5.0778 4.29605 4.6868 4.68705C4.2958 5.07805 4.2958 5.71005 4.6868 6.10105L7.5148 8.92905Z" fill="#898D9E"/>
<path d="M24.4851 23.0711C24.0941 22.6801 23.4621 22.6801 23.0711 23.0711C22.6801 23.4621 22.6801 24.0941 23.0711 24.4851L25.8991 27.3131C26.0941 27.5081 26.3501 27.6061 26.6061 27.6061C26.8621 27.6061 27.1181 27.5081 27.3131 27.3131C27.7041 26.9221 27.7041 26.2901 27.3131 25.8991L24.4851 23.0711Z" fill="#898D9E"/>
<path d="M23.7781 9.22205C24.0341 9.22205 24.2901 9.12405 24.4851 8.92905L27.3131 6.10105C27.7041 5.71005 27.7041 5.07805 27.3131 4.68705C26.9221 4.29605 26.2901 4.29605 25.8991 4.68705L23.0711 7.51505C22.6801 7.90605 22.6801 8.53805 23.0711 8.92905C23.2671 9.12405 23.5221 9.22205 23.7781 9.22205Z" fill="#898D9E"/>
<path d="M7.5148 23.071L4.6868 25.899C4.2958 26.29 4.2958 26.922 4.6868 27.313C4.8818 27.508 5.1378 27.606 5.3938 27.606C5.6498 27.606 5.9058 27.508 6.1008 27.313L8.9288 24.485C9.3198 24.094 9.3198 23.462 8.9288 23.071C8.53781 22.68 7.9048 22.681 7.5148 23.071Z" fill="#898D9E"/>
<path d="M11.5 15C11.776 15 12 14.776 12 14.5C12 13.122 13.122 12 14.5 12C14.776 12 15 11.776 15 11.5C15 11.224 14.776 11 14.5 11C12.57 11 11 12.57 11 14.5C11 14.776 11.224 15 11.5 15Z" fill="#898D9E"/>
</g>
<defs>
<clipPath id="clip0_0_251">
<rect width="32" height="32" fill="white"/>
</clipPath>
</defs>
</svg>
