<svg width="24" height="24" viewBox="0 0 24 24" fill="none" xmlns="http://www.w3.org/2000/svg">
<path d="M7.74968 3.74985H3.74985C2.92145 3.74985 2.24991 4.42139 2.24991 5.24979V21.7491C2.24991 22.5775 2.92145 23.2491 3.74985 23.2491H20.2492C21.0776 23.2491 21.7491 22.5775 21.7491 21.7491V5.24979C21.7491 4.42139 21.0776 3.74985 20.2492 3.74985H16.2493" stroke="#A1A3F6" stroke-width="1.5" stroke-linecap="round" stroke-linejoin="round"/>
<path fill-rule="evenodd" clip-rule="evenodd" d="M15.9202 4.73681C15.8179 5.0431 15.5312 5.24966 15.2082 5.24979H8.79051C8.46757 5.24966 8.18088 5.0431 8.07854 4.73681L7.07858 1.73693C7.00191 1.50815 7.04015 1.25645 7.18131 1.06076C7.32247 0.865078 7.54926 0.749385 7.79055 0.749972H16.2082C16.4495 0.749385 16.6763 0.865078 16.8174 1.06076C16.9586 1.25645 16.9968 1.50815 16.9202 1.73693L15.9202 4.73681Z" stroke="#A1A3F6" stroke-width="1.5" stroke-linecap="round" stroke-linejoin="round"/>
<path d="M18.7492 6.74973V16.6273C18.7494 17.0252 18.5915 17.4068 18.3103 17.6883L16.1883 19.8092C15.9073 20.0906 15.5261 20.2488 15.1284 20.2492H5.99976C5.58556 20.2492 5.24979 19.9134 5.24979 19.4992V6.74973" stroke="#A1A3F6" stroke-width="1.5" stroke-linecap="round" stroke-linejoin="round"/>
<path d="M14.2494 20.2492V17.2493C14.2494 16.4209 14.921 15.7494 15.7494 15.7494H18.7492" stroke="#A1A3F6" stroke-width="1.5" stroke-linecap="round" stroke-linejoin="round"/>
</svg>
