<svg width="32" height="32" viewBox="0 0 32 32" fill="none" xmlns="http://www.w3.org/2000/svg">
<path d="M25.4052 3C24.7892 3.00212 24.1499 3.10164 23.5085 3.27103C21.796 3.72205 20.0433 4.67278 18.8177 5.89666C17.4248 7.28993 16.9824 9.06223 16.7517 10.5381C16.6352 11.2771 16.5739 11.9504 16.4807 12.4692C16.3876 12.988 16.2542 13.3225 16.159 13.4178C15.725 13.8519 13.9575 15.3574 12.0608 16.992C10.1641 18.6267 8.0939 20.4159 6.89578 21.6165C4.73028 23.7827 3.68246 25.1315 3.23793 26.1563C3.01566 26.6687 2.95216 27.1282 3.03471 27.5284C3.11727 27.9286 3.348 28.2314 3.55968 28.4432C3.77137 28.6549 4.07407 28.8857 4.47415 28.9683C4.87423 29.0509 5.33357 28.9704 5.84584 28.7481C6.87038 28.3034 8.21879 27.2722 10.3843 25.1061C11.5845 23.9076 13.3732 21.8367 15.0074 19.9395C16.6416 18.0423 18.1466 16.2742 18.5806 15.8402C18.6758 15.7449 18.9955 15.6094 19.512 15.5183C20.0285 15.4273 20.7059 15.3616 21.4425 15.2473C22.9158 15.0207 24.6897 14.5887 26.0995 13.1806C27.3251 11.9547 28.2735 10.2014 28.7244 8.4884C29.1752 6.77539 29.1498 5.01792 28.0639 3.93167C27.5199 3.38749 26.8044 3.12069 26.0148 3.03388C25.818 3.0127 25.6105 3 25.4052 3ZM25.3883 4.10107C25.5534 4.10107 25.71 4.10107 25.8624 4.11801C26.47 4.18153 26.9738 4.38269 27.3019 4.71089C27.956 5.36518 28.0724 6.70128 27.6744 8.21737C27.2765 9.73346 26.3768 11.3448 25.3205 12.4014C24.152 13.5703 22.6639 13.9662 21.2732 14.1801C20.5767 14.2881 19.9099 14.3495 19.3257 14.4511C18.7415 14.5527 18.2059 14.6734 17.8016 15.0779C17.2343 15.6453 15.8076 17.3351 14.1776 19.2281C12.5477 21.121 10.7484 23.1855 9.6053 24.3268C7.48002 26.4528 6.16125 27.4374 5.40555 27.7656C5.02875 27.9286 4.82342 27.9286 4.6943 27.9011C4.56517 27.8736 4.45933 27.8185 4.32174 27.6809C4.18414 27.5432 4.12911 27.4374 4.10159 27.3082C4.07407 27.179 4.07407 26.9736 4.23706 26.5967C4.56517 25.8429 5.54737 24.5217 7.67477 22.3957C8.81573 21.2523 10.8796 19.4525 12.7721 17.8221C14.6645 16.1916 16.3537 14.7645 16.921 14.197C17.3253 13.7926 17.4439 13.2442 17.5476 12.6555C17.6513 12.0669 17.7254 11.4062 17.8355 10.7075C18.0535 9.30997 18.4472 7.82564 19.5967 6.67587C20.653 5.62139 22.2638 4.71936 23.7795 4.32128C24.3489 4.17094 24.895 4.10319 25.3883 4.10107Z" fill="#898D9E" stroke="#898D9E" stroke-width="0.3"/>
</svg>
