<svg width="25" height="24" viewBox="0 0 25 24" fill="none" xmlns="http://www.w3.org/2000/svg">
<path fill-rule="evenodd" clip-rule="evenodd" d="M6.75 12.75C10.0637 12.75 12.75 10.0637 12.75 6.75C12.75 3.43629 10.0637 0.75 6.75 0.75C3.43629 0.75 0.75 3.43629 0.75 6.75C0.75 10.0637 3.43629 12.75 6.75 12.75Z" stroke="#A1A3F6" stroke-width="1.5" stroke-linecap="round" stroke-linejoin="round"/>
<path d="M0.938965 5.25H12.561" stroke="#A1A3F6" stroke-width="1.5" stroke-linecap="round" stroke-linejoin="round"/>
<path d="M0.938965 8.25H12.561" stroke="#A1A3F6" stroke-width="1.5" stroke-linecap="round" stroke-linejoin="round"/>
<path fill-rule="evenodd" clip-rule="evenodd" d="M15.7879 22.1516C14.3104 23.5284 12.0079 23.4878 10.5798 22.0597C9.15174 20.6316 9.11111 18.3291 10.4879 16.8516L16.8519 10.4876C17.7868 9.48432 19.1947 9.07134 20.5234 9.41066C21.852 9.74998 22.8895 10.7875 23.2288 12.1161C23.5682 13.4448 23.1552 14.8527 22.1519 15.7876L15.7879 22.1516Z" stroke="#A1A3F6" stroke-width="1.5" stroke-linecap="round" stroke-linejoin="round"/>
<path d="M13.666 13.666L18.97 18.97" stroke="#A1A3F6" stroke-width="1.5" stroke-linecap="round" stroke-linejoin="round"/>
</svg>
